<svg width="50" height="50" viewBox="0 0 50 50" fill="none" xmlns="http://www.w3.org/2000/svg">
<path d="M25.0001 4.16669C13.7063 4.16669 4.16675 13.7063 4.16675 25C4.16675 31.6438 7.48341 37.6625 12.5001 41.5084V41.6667H12.7126C16.1876 44.2604 20.4438 45.8334 25.0001 45.8334C29.5563 45.8334 33.8126 44.2604 37.2876 41.6667H37.5001V41.5084C42.5168 37.6625 45.8334 31.6459 45.8334 25C45.8334 13.7063 36.2938 4.16669 25.0001 4.16669ZM16.8209 39.4313C17.1279 38.0425 17.8991 36.7999 19.0073 35.9083C20.1155 35.0168 21.4945 34.5296 22.9167 34.5271H27.0834C28.5056 34.53 29.8844 35.0173 30.9925 35.9088C32.1006 36.8003 32.8719 38.0427 33.1792 39.4313C30.7459 40.8417 27.9501 41.6667 25.0001 41.6667C22.0501 41.6667 19.2542 40.8417 16.8209 39.4313ZM36.6876 36.7521C35.8929 34.8602 34.5579 33.2446 32.8495 32.1077C31.1412 30.9708 29.1355 30.363 27.0834 30.3604H22.9167C20.8647 30.363 18.859 30.9708 17.1506 32.1077C15.4423 33.2446 14.1073 34.8602 13.3126 36.7521C10.2563 33.7125 8.33342 29.5334 8.33342 25C8.33342 15.9646 15.9647 8.33335 25.0001 8.33335C34.0355 8.33335 41.6668 15.9646 41.6668 25C41.6668 29.5334 39.7438 33.7125 36.6876 36.7521Z" fill="#757A83"/>
<path d="M25.0001 12.5C20.2501 12.5 16.6667 16.0833 16.6667 20.8333C16.6667 25.5833 20.2501 29.1667 25.0001 29.1667C29.7501 29.1667 33.3334 25.5833 33.3334 20.8333C33.3334 16.0833 29.7501 12.5 25.0001 12.5ZM25.0001 25C22.5459 25 20.8334 23.2875 20.8334 20.8333C20.8334 18.3792 22.5459 16.6667 25.0001 16.6667C27.4542 16.6667 29.1667 18.3792 29.1667 20.8333C29.1667 23.2875 27.4542 25 25.0001 25Z" fill="#757A83"/>
</svg>
