<svg width="24" height="34" viewBox="0 0 24 34" fill="none" xmlns="http://www.w3.org/2000/svg">
<path d="M19.0834 31.1667H13.4167V26.9167H10.5834V31.1667H4.91671V26.9167H2.08337V32.5834C2.08337 32.9591 2.23263 33.3195 2.49831 33.5851C2.76398 33.8508 3.12432 34.0001 3.50004 34.0001H20.5C20.8758 34.0001 21.2361 33.8508 21.5018 33.5851C21.7675 33.3195 21.9167 32.9591 21.9167 32.5834V26.9167H19.0834V31.1667Z" fill="#14B0F2"/>
<path d="M4.46061 10.3176L4.94278 10.626L7.25602 12.1055L7.25609 12.1056C7.36818 12.1773 7.49454 12.2238 7.62639 12.2417C7.75824 12.2597 7.89243 12.2487 8.01961 12.2096C8.14681 12.1705 8.26395 12.1041 8.36292 12.0152C8.46188 11.9262 8.54029 11.8168 8.5927 11.6945L8.59271 11.6944L11.3747 5.20273L11.8927 3.99391L12.3086 5.24157L13.9636 10.2066C14.0053 10.3316 14.0733 10.446 14.1632 10.5423C14.2531 10.6386 14.3626 10.7143 14.4844 10.7644C14.6062 10.8145 14.7373 10.8378 14.8689 10.8327C15.0005 10.8276 15.1295 10.7942 15.247 10.7347L18.2265 9.22743L18.6318 9.02239L18.8747 9.40621C19.4959 10.3878 20.0237 11.5525 20.3968 12.6497C20.7669 13.738 21 14.8042 21 15.5834C21 18.5004 19.649 20.4651 17.7578 21.6569L16.6967 22.3257L17.0067 21.1104C17.1131 20.6931 17.1669 20.2642 17.1667 19.8336V19.8334C17.1667 19.2504 16.9596 18.535 16.5995 17.7469C16.2429 16.9667 15.7549 16.1547 15.2355 15.3898C14.1968 13.8603 13.0606 12.5595 12.6822 12.1378C12.5963 12.0421 12.4911 11.9654 12.3736 11.913C12.256 11.8605 12.1287 11.8334 12 11.8334C11.8713 11.8334 11.744 11.8605 11.6265 11.913L4.46061 10.3176ZM4.46061 10.3176L4.21979 10.8368M4.46061 10.3176L4.21979 10.8368M4.21979 10.8368C3.51167 12.3636 3.00002 14.3883 3.00002 15.5834C3.00002 18.5004 4.35103 20.4651 6.24226 21.6569L7.30333 22.3257L6.99333 21.1104C6.8869 20.6931 6.83316 20.2642 6.83335 19.8336V19.8334M4.21979 10.8368L6.83335 19.8334M6.83335 19.8334C6.83335 19.2504 7.04046 18.535 7.40057 17.7469C7.75712 16.9667 8.24513 16.1547 8.76455 15.3898C9.80319 13.8603 10.9394 12.5595 11.3178 12.1378L6.83335 19.8334ZM4.41517 22.6022L4.41499 22.602C2.29288 20.8995 1.16669 18.485 1.16669 15.5834C1.16669 14.688 1.39626 13.385 1.80553 12.0559C2.21462 10.7273 2.78707 9.42547 3.44152 8.51738C3.57852 8.32731 3.7831 8.19692 4.01323 8.15298C4.24337 8.10904 4.48159 8.15489 4.67897 8.28111C4.67898 8.28111 4.679 8.28112 4.67901 8.28113L6.83656 9.66112L7.33328 9.97883L7.56554 9.43686L11.1573 1.05568L11.1574 1.05556C11.2306 0.88465 11.354 0.740034 11.5113 0.640907C11.6686 0.541779 11.8523 0.492827 12.0381 0.500547C12.2238 0.508266 12.4029 0.572292 12.5514 0.684128C12.6999 0.795964 12.8109 0.950323 12.8697 1.12672L12.8697 1.12681L15.184 8.06989L15.3672 8.61943L15.8841 8.35794L18.4789 7.04524C18.6645 6.95135 18.8765 6.92339 19.0801 6.96593C19.2837 7.00847 19.4668 7.11898 19.5993 7.27933L19.5993 7.27935C20.4635 8.32521 21.2766 9.81065 21.8736 11.3478C22.4722 12.8891 22.8334 14.4306 22.8334 15.5834C22.8334 18.485 21.7072 20.8995 19.585 22.602L19.5849 22.6022C17.6759 24.1351 14.9877 25.0001 12 25.0001C9.01237 25.0001 6.32413 24.1351 4.41517 22.6022ZM12.3905 14.6313L12 14.143L11.6095 14.6313C10.8483 15.5831 10.1257 16.5988 9.59049 17.4983C9.32311 17.9476 9.0974 18.3763 8.93702 18.7593C8.78185 19.1297 8.66669 19.5057 8.66669 19.8334C8.66669 20.7174 9.01788 21.5653 9.643 22.1904C10.2681 22.8155 11.116 23.1667 12 23.1667C12.8841 23.1667 13.7319 22.8155 14.357 22.1904C14.9822 21.5653 15.3334 20.7174 15.3334 19.8334C15.3334 19.5057 15.2182 19.1297 15.063 18.7593C14.9026 18.3764 14.6769 17.9476 14.4095 17.4984C13.8743 16.5989 13.1517 15.5832 12.3905 14.6313Z" fill="#14B0F2" stroke="#14B0F2"/>
</svg>
